{"title":"Get Him To The Greek 2010 BDrip AC3 HQ Hive - CM8","uid":5840831,"size":1763131630,"categoryP":"video","categoryS":"movies","magnet":"?xt=urn:btih:1a0f83dfc7d69fd55d5ece026049bd0fa1f91e82&amp;dn=Get+Him+To+The+Greek+2010+BDrip+AC3+HQ+Hive+-+CM8&amp;tr=udp%3A%2F%2Ftracker.openbittorrent.com%3A80&amp;tr=udp%3A%2F%2Fopen.demonii.com%3A1337&amp;tr=udp%3A%2F%2Ftracker.coppersurfer.tk%3A6969&amp;tr=udp%3A%2F%2Fexodus.desync.com%3A6969","seeders":0,"leechers":0,"uploader":"razvanripper","files":-1,"time":1284945025,"description":"Source US Bluray\n\nVideo: 720x384  @bitrate 1600 2pass\nAudio: DTS to AC3 5.1\nsample included for waynej lolololol\n\nGeneral\n\nFormat                           : AVI\nFormat/Info                      : Audio Video Interleave\nFile size                        : 1.64 GiB\nDuration                         : 1h 53mn\nOverall bit rate                 : 2 057 Kbps\nWriting application              : Nandub v1.0rc2\nWriting library                  : Nandub build 1853/release\n\nVideo\nID                               : 0\nFormat                           : MPEG-4 Visual\nFormat profile                   : Advanced Simple@L5\nFormat settings, BVOP            : Yes\nFormat settings, QPel            : Yes\nFormat settings, GMC             : 3 warppoints\nFormat settings, Matrix          : Default (H.263)\nCodec ID                         : XVID\nCodec ID/Hint                    : XviD\nDuration                         : 1h 53mn\nBit rate                         : 1 599 Kbps\nWidth                            : 720 pixels\nHeight                           : 384 pixels\nDisplay aspect ratio             : 1.850\nFrame rate                       : 23.976 fps\nColor space                      : YUV\nChroma subsampling               : 4:2:0\nBit depth                        : 8 bits\nScan type                        : Progressive\nBits/(Pixel*Frame)               : 0.241\nStream size                      : 1.27 GiB (78%)\nWriting library                  : XviD 1.2.1 (UTC 2008-12-04)\n\nAudio\nID                               : 1\nFormat                           : AC-3\nFormat/Info                      : Audio Coding 3\nMode extension                   : CM (complete main)\nCodec ID                         : 2000\nDuration                         : 1h 53mn\nBit rate mode                    : Constant\nBit rate                         : 448 Kbps\nChannel(s)                       : 6 channels\nChannel positions                : Front: L C R, Side: L R, LFE\nSampling rate                    : 48.0 KHz\nBit depth                        : 16 bits\nStream size                      : 365 MiB (22%)\nAlignment                        : Split accross interleaves\nInterleave, duration             : 42 ms (1.00 video frame)\nInterleave, preload duration     : 500 ms \n","torrent":{"xt":"urn:btih:1a0f83dfc7d69fd55d5ece026049bd0fa1f91e82","amp;dn":"Get+Him+To+The+Greek+2010+BDrip+AC3+HQ+Hive+-+CM8","amp;tr":["udp%3A%2F%2Ftracker.openbittorrent.com%3A80","udp%3A%2F%2Fopen.demonii.com%3A1337","udp%3A%2F%2Ftracker.coppersurfer.tk%3A6969","udp%3A%2F%2Fexodus.desync.com%3A6969"],"infoHash":"1a0f83dfc7d69fd55d5ece026049bd0fa1f91e82","infoHashBuffer":{"type":"Buffer","data":[26,15,131,223,199,214,159,213,93,94,206,2,96,73,189,15,161,249,30,130]},"announce":[],"urlList":[]}}